<svg width="40" height="40" viewBox="0 0 40 40" fill="none" xmlns="http://www.w3.org/2000/svg">
<g clip-path="url(#clip0_52_5)">
<path d="M38.8281 25.9377H32.5781C31.9313 25.9377 31.4062 25.4127 31.4062 24.7659V9.14087C31.4062 8.87837 31.4945 8.62368 31.6563 8.41743L37.9063 0.448679C38.2148 0.05571 38.7383 -0.0989775 39.2109 0.0643038C39.6836 0.227585 40 0.672116 40 1.17212V24.7659C40 25.4135 39.475 25.9377 38.8281 25.9377Z" fill="#FFF5F5"/>
<path d="M39.2109 0.0643038C38.7383 -0.0989775 38.2148 0.05571 37.9063 0.448679L34.4531 4.85102V25.9377H38.8281C39.475 25.9377 40 25.4127 40 24.7659V1.17212C40 0.672898 39.6828 0.227585 39.2109 0.0643038Z" fill="#DAEAEC"/>
<path d="M38.8281 40H28.9062C28.2594 40 27.7344 39.475 27.7344 38.8281V24.7656C27.7344 24.1188 28.2594 23.5938 28.9062 23.5938H40V38.8281C40 39.475 39.475 40 38.8281 40Z" fill="#8CBCFF"/>
<path d="M34.4531 23.5938V40H38.8281C39.475 40 40 39.475 40 38.8281V23.5938H34.4531Z" fill="#79DAE8"/>
<path d="M35.2344 30.625H33.6719C33.025 30.625 32.5 30.1 32.5 29.4531C32.5 28.8063 33.025 28.2812 33.6719 28.2812H35.2344C35.8812 28.2812 36.4062 28.8063 36.4062 29.4531C36.4062 30.1 35.8812 30.625 35.2344 30.625Z" fill="#FFE278"/>
<path d="M35.2344 28.2812H34.4531V30.625H35.2344C35.8813 30.625 36.4062 30.1 36.4062 29.4531C36.4062 28.8063 35.8813 28.2812 35.2344 28.2812Z" fill="#FFB454"/>
<path d="M35.2344 35.3125H33.6719C33.025 35.3125 32.5 34.7875 32.5 34.1406C32.5 33.4938 33.025 32.9688 33.6719 32.9688H35.2344C35.8812 32.9688 36.4062 33.4938 36.4062 34.1406C36.4062 34.7875 35.8812 35.3125 35.2344 35.3125Z" fill="#FFE278"/>
<path d="M35.2344 32.9688H34.4531V35.3125H35.2344C35.8813 35.3125 36.4062 34.7875 36.4062 34.1406C36.4062 33.4938 35.8813 32.9688 35.2344 32.9688Z" fill="#FFB454"/>
<path d="M9.375 40H1.17188C0.525 40 0 39.475 0 38.8281V12.2656C0 11.6188 0.525 11.0938 1.17188 11.0938H9.375C10.6695 11.0938 11.7188 12.143 11.7188 13.4375V37.6562C11.7188 38.9508 10.6695 40 9.375 40Z" fill="#79DAE8"/>
<path d="M9.375 11.0938H4.6875V40H9.375C10.6695 40 11.7188 38.9508 11.7188 37.6562V13.4375C11.7188 12.143 10.6695 11.0938 9.375 11.0938Z" fill="#5EA7B1"/>
<path d="M3.51562 40V35.7031C3.51562 35.0563 4.04063 34.5312 4.6875 34.5312C5.33438 34.5312 5.85938 35.0563 5.85938 35.7031V40H3.51562Z" fill="#8CBCFF"/>
<path d="M5.85938 35.7031C5.85938 35.0563 5.33437 34.5312 4.6875 34.5312V40H5.85938V35.7031Z" fill="#79DAE8"/>
<path d="M4.6875 32.1875C4.04063 32.1875 3.51562 31.6625 3.51562 31.0156V29.4531C3.51562 28.8063 4.04063 28.2812 4.6875 28.2812C5.33438 28.2812 5.85938 28.8063 5.85938 29.4531V31.0156C5.85938 31.6625 5.33438 32.1875 4.6875 32.1875Z" fill="#8CBCFF"/>
<path d="M4.6875 28.2812V32.1875C5.33437 32.1875 5.85938 31.6625 5.85938 31.0156V29.4531C5.85938 28.8063 5.33437 28.2812 4.6875 28.2812Z" fill="#79DAE8"/>
<path d="M4.6875 25.9375C4.04063 25.9375 3.51562 25.4125 3.51562 24.7656V23.2031C3.51562 22.5563 4.04063 22.0312 4.6875 22.0312C5.33438 22.0312 5.85938 22.5563 5.85938 23.2031V24.7656C5.85938 25.4125 5.33438 25.9375 4.6875 25.9375Z" fill="#8CBCFF"/>
<path d="M4.6875 22.0312V25.9375C5.33437 25.9375 5.85938 25.4125 5.85938 24.7656V23.2031C5.85938 22.5563 5.33437 22.0312 4.6875 22.0312Z" fill="#79DAE8"/>
<path d="M4.6875 19.6875C4.04063 19.6875 3.51562 19.1625 3.51562 18.5156V16.9531C3.51562 16.3063 4.04063 15.7812 4.6875 15.7812C5.33438 15.7812 5.85938 16.3063 5.85938 16.9531V18.5156C5.85938 19.1625 5.33438 19.6875 4.6875 19.6875Z" fill="#8CBCFF"/>
<path d="M4.6875 15.7812V19.6875C5.33437 19.6875 5.85938 19.1625 5.85938 18.5156V16.9531C5.85938 16.3063 5.33437 15.7812 4.6875 15.7812Z" fill="#79DAE8"/>
<path d="M19.1406 5.625C18.4938 5.625 17.9688 5.1 17.9688 4.45312V1.17188C17.9688 0.525 18.4938 0 19.1406 0C19.7875 0 20.3125 0.525 20.3125 1.17188V4.45312C20.3125 5.1 19.7875 5.625 19.1406 5.625Z" fill="#8CBCFF"/>
<path d="M19.1406 0V5.625C19.7875 5.625 20.3125 5.1 20.3125 4.45312V1.17188C20.3125 0.525 19.7875 0 19.1406 0Z" fill="#79DAE8"/>
<path d="M23.8281 10.3125H14.4531C13.8063 10.3125 13.2812 9.7875 13.2812 9.14062V4.45312C13.2812 3.80625 13.8063 3.28125 14.4531 3.28125H23.8281C24.475 3.28125 25 3.80625 25 4.45312V9.14062C25 9.7875 24.475 10.3125 23.8281 10.3125Z" fill="#79DAE8"/>
<path d="M23.8281 3.28125H19.1406V10.3125H23.8281C24.475 10.3125 25 9.7875 25 9.14062V4.45312C25 3.80625 24.475 3.28125 23.8281 3.28125Z" fill="#5EA7B1"/>
<path d="M27.7344 7.96875H10.5469C9.9 7.96875 9.375 8.49375 9.375 9.14062V40H14.0625L19.1406 37.5L24.2188 40H28.9062V9.14062C28.9062 8.49375 28.3813 7.96875 27.7344 7.96875Z" fill="#F1F4F6"/>
<path d="M28.9062 40V9.14062C28.9062 8.49375 28.3813 7.96875 27.7344 7.96875H19.1406V37.5L24.2188 40H28.9062Z" fill="#DAEAEC"/>
<path d="M23.0469 31.4062H15.2344C14.5875 31.4062 14.0625 31.9313 14.0625 32.5781V40H16.4062L19.2969 39.2969L21.875 40H24.2188V32.5781C24.2188 31.9313 23.6938 31.4062 23.0469 31.4062Z" fill="#79DAE8"/>
<path d="M23.0469 31.4062H19.1406V39.3352L19.2969 39.2969L21.875 40H24.2188V32.5781C24.2188 31.9313 23.6937 31.4062 23.0469 31.4062Z" fill="#5EA7B1"/>
<path d="M23.0469 29.0625H15.2344C14.5875 29.0625 14.0625 28.5375 14.0625 27.8906C14.0625 27.2438 14.5875 26.7188 15.2344 26.7188H23.0469C23.6938 26.7188 24.2188 27.2438 24.2188 27.8906C24.2188 28.5375 23.6938 29.0625 23.0469 29.0625Z" fill="#79DAE8"/>
<path d="M23.0469 26.7188H19.1406V29.0625H23.0469C23.6937 29.0625 24.2188 28.5375 24.2188 27.8906C24.2188 27.2438 23.6937 26.7188 23.0469 26.7188Z" fill="#5EA7B1"/>
<path d="M23.0469 24.375H15.2344C14.5875 24.375 14.0625 23.85 14.0625 23.2031C14.0625 22.5563 14.5875 22.0312 15.2344 22.0312H23.0469C23.6938 22.0312 24.2188 22.5563 24.2188 23.2031C24.2188 23.85 23.6938 24.375 23.0469 24.375Z" fill="#79DAE8"/>
<path d="M23.0469 22.0312H19.1406V24.375H23.0469C23.6937 24.375 24.2188 23.85 24.2188 23.2031C24.2188 22.5563 23.6937 22.0312 23.0469 22.0312Z" fill="#5EA7B1"/>
<path d="M23.0469 19.6875H15.2344C14.5875 19.6875 14.0625 19.1625 14.0625 18.5156C14.0625 17.8688 14.5875 17.3438 15.2344 17.3438H23.0469C23.6938 17.3438 24.2188 17.8688 24.2188 18.5156C24.2188 19.1625 23.6938 19.6875 23.0469 19.6875Z" fill="#79DAE8"/>
<path d="M23.0469 17.3438H19.1406V19.6875H23.0469C23.6937 19.6875 24.2188 19.1625 24.2188 18.5156C24.2188 17.8688 23.6937 17.3438 23.0469 17.3438Z" fill="#5EA7B1"/>
<path d="M23.0469 15H15.2344C14.5875 15 14.0625 14.475 14.0625 13.8281C14.0625 13.1813 14.5875 12.6562 15.2344 12.6562H23.0469C23.6938 12.6562 24.2188 13.1813 24.2188 13.8281C24.2188 14.475 23.6938 15 23.0469 15Z" fill="#79DAE8"/>
<path d="M23.0469 12.6562H19.1406V15H23.0469C23.6937 15 24.2188 14.475 24.2188 13.8281C24.2188 13.1813 23.6937 12.6562 23.0469 12.6562Z" fill="#5EA7B1"/>
<path d="M16.4062 33.75H21.875V40H16.4062V33.75Z" fill="#FFE278"/>
<path d="M19.1406 33.75H21.875V40H19.1406V33.75Z" fill="#FFB454"/>
<path d="M19.7628 12.9407C17.219 1.8499 15.4211 -9.45761 12.596 -20.4757C9.6702 -31.8863 6.62568 -20.1028 4.393 -15.3812C3.29429 -13.0577 -4.41943 -2.30022 2.83875 -3.55163C9.0809 -4.62787 14.7416 -7.35142 20.5399 -9.59594" stroke="white" stroke-width="3" stroke-linecap="round"/>
</g>
<defs>
<clipPath id="clip0_52_5">
<rect width="40" height="40" fill="white"/>
</clipPath>
</defs>
</svg>
