<svg width="1798" height="1798" viewBox="0 0 1798 1798" fill="none" xmlns="http://www.w3.org/2000/svg">
<path d="M899 1798C1395.5 1798 1798 1395.5 1798 899C1798 402.496 1395.5 0 899 0C402.496 0 0 402.496 0 899C0 1395.5 402.496 1798 899 1798Z" fill="#52C6D6"/>
<path d="M1229.83 1352.1L616.715 282.286L498.047 400.954L494.451 366.792L1.79896 861.242C-8.98904 1103.97 79.113 1350.3 264.307 1535.49C411.743 1682.93 598.735 1769.23 791.121 1792.61L1229.83 1352.1Z" fill="#79DAE8"/>
<path d="M1125.55 825.282L1145.33 622.108L947.547 307.458H616.714L494.45 366.792L417.136 613.118C417.136 613.118 411.742 643.684 408.146 694.028L485.46 857.646L899.001 936.758L1125.55 825.282Z" fill="#009400"/>
<path d="M1114.76 945.748L810.898 990.698L408.146 904.394C420.732 1044.64 462.086 1213.65 568.168 1352.1C573.562 1357.49 578.956 1364.68 584.35 1370.08L774.938 1540.89C774.938 1540.89 792.918 1566.06 899 1566.06L1087.79 1226.24L1114.76 945.748Z" fill="#009400"/>
<path d="M1389.85 904.394L899 978.112V1566.06C1005.08 1566.06 1023.06 1540.89 1023.06 1540.89L1213.65 1370.08C1219.04 1364.68 1224.44 1359.29 1229.83 1352.1C1337.71 1213.65 1377.27 1044.64 1389.85 904.394Z" fill="#009400"/>
<path d="M899 936.758L1391.65 695.826C1388.06 645.482 1382.66 614.916 1382.66 614.916L1305.35 368.59L1183.08 309.256H899V936.758Z" fill="#009400"/>
<path d="M1118.36 1224.44H899.001H679.645C679.645 1224.44 607.725 1220.84 632.897 1285.57C632.897 1285.57 688.635 1431.21 782.131 1492.34C782.131 1492.34 814.495 1504.93 900.799 1504.93C987.103 1504.93 1019.47 1492.34 1019.47 1492.34C1112.96 1431.21 1168.7 1285.57 1168.7 1285.57C1190.28 1220.84 1118.36 1224.44 1118.36 1224.44Z" fill="#EAE5D8"/>
<path d="M925.971 1276.58L899.001 1287.37L872.031 1276.58L756.959 1321.53L864.839 1305.35L899.001 1314.34L933.163 1305.35L1041.04 1321.53L925.971 1276.58Z" fill="#AAA08A"/>
<path d="M899.001 1348.5C803.707 1348.5 785.727 1334.12 785.727 1334.12C816.293 1388.06 899.001 1389.85 899.001 1389.85C899.001 1389.85 981.709 1388.06 1012.27 1334.12C1012.27 1335.91 994.295 1348.5 899.001 1348.5Z" fill="#AAA08A"/>
<path d="M1134.54 1226.24C1129.15 1262.2 1103.97 1371.87 1001.49 1476.16C1001.49 1476.16 969.123 1485.15 899.001 1485.15C828.879 1485.15 796.515 1476.16 796.515 1476.16C692.231 1371.87 668.857 1262.2 663.463 1226.24C643.685 1229.83 614.917 1242.42 631.099 1285.57C631.099 1285.57 686.837 1431.21 780.333 1492.34C780.333 1492.34 812.697 1504.93 899.001 1504.93C985.305 1504.93 1017.67 1492.34 1017.67 1492.34C1111.17 1431.21 1166.9 1285.57 1166.9 1285.57C1183.09 1240.62 1154.32 1228.03 1134.54 1226.24Z" fill="#00BC00"/>
<path d="M899.001 231.942C899.001 231.942 751.565 224.75 616.715 282.286V307.458C616.715 307.458 794.717 460.288 794.717 747.968V863.04L899.001 890.01L983.507 474.672L899.001 231.942Z" fill="#0BFD0B"/>
<path d="M1003.28 864.838V749.766C1003.28 462.086 1181.29 309.256 1181.29 309.256V284.084C1046.44 224.75 899 231.942 899 231.942V891.808L1003.28 864.838Z" fill="#04AC04"/>
<path d="M1139.93 760.554L1094.98 823.484C1042.84 845.06 899 855.848 899 855.848C899 855.848 755.16 845.06 703.018 821.686L658.068 758.756L431.52 668.856L406.348 694.028C402.752 746.17 399.156 819.888 408.146 902.596C436.914 967.324 492.652 1069.81 571.764 1120.15L636.492 1107.57C636.492 1107.57 782.13 1179.49 899 1195.67C1014.07 1179.49 1161.51 1107.57 1161.51 1107.57L1226.24 1120.15C1305.35 1068.01 1361.09 965.526 1389.85 902.596C1397.05 819.888 1395.25 746.17 1391.65 694.028L1366.48 670.654L1139.93 760.554Z" fill="#EAE5D8"/>
<path d="M1226.24 1121.95C1305.35 1069.81 1361.09 967.324 1389.85 904.394C1397.05 821.686 1395.25 747.968 1391.65 695.826L1366.48 670.654L1139.93 760.554L1094.98 823.484C1042.84 845.06 899 855.848 899 855.848V1197.47C1014.07 1181.29 1161.51 1109.37 1161.51 1109.37L1226.24 1121.95Z" fill="#D3CCBA"/>
<path d="M899 1224.44L870.232 1220.84V1267.59L899 1280.18L927.768 1267.59V1220.84L899 1224.44Z" fill="#AAA08A"/>
<path d="M559.178 508.834C559.178 508.834 535.804 395.56 483.662 469.278V521.42C483.662 521.42 487.258 589.744 559.178 508.834Z" fill="#2E3B42"/>
<path d="M1238.82 508.834C1238.82 508.834 1262.2 395.56 1314.34 469.278V521.42C1314.34 521.42 1310.74 589.744 1238.82 508.834Z" fill="black"/>
<path d="M997.89 997.89L899 879.222C676.048 879.222 453.096 758.756 453.096 758.756L418.934 792.918C505.238 1127.35 899 1174.09 899 1174.09L997.89 997.89Z" fill="#2E3B42"/>
<path d="M899 879.222V1172.3C899 1172.3 1292.76 1125.55 1379.07 791.12L1344.9 756.958C1344.9 760.554 1121.95 879.222 899 879.222Z" fill="black"/>
</svg>
