<svg width="40" height="40" viewBox="0 0 40 40" fill="none" xmlns="http://www.w3.org/2000/svg">
<g clip-path="url(#clip0_52_4)">
<path d="M7.03027 29.2969V25.4688C7.03027 23.0564 8.99293 21.0938 11.4053 21.0938C13.8176 21.0938 15.7803 23.0564 15.7803 25.4688V33.5056C15.7803 37.0866 18.6936 40 22.2747 40C25.8557 40 28.769 37.0866 28.769 33.5056V32.6598L32.3535 24.1996L30.1954 23.2853L27.5972 29.4179L24.9989 23.2853L22.8409 24.1996L26.4253 32.6598V33.5056C26.4253 35.7943 24.5633 37.6562 22.2747 37.6562C19.986 37.6562 18.124 35.7943 18.124 33.5056V25.4688C18.124 21.7641 15.11 18.75 11.4053 18.75C7.70059 18.75 4.68652 21.7641 4.68652 25.4688V29.2969H7.03027Z" fill="#5A5A5A"/>
<path d="M27.5967 29.4177V37.22C28.3341 36.1666 28.7686 34.8861 28.7686 33.5055V32.6597L32.353 24.1995L30.195 23.2852L27.5967 29.4177Z" fill="#3C3C3C"/>
<path d="M33.066 1.5625H34.9187C36.5267 1.5625 38.0045 2.29883 38.9728 3.58258C39.9412 4.86633 40.2432 6.48945 39.8014 8.0357L36.6911 18.9218C36.1219 20.914 34.9467 22.6264 33.2927 23.8741C31.6386 25.1218 29.6692 25.7813 27.5974 25.7813C25.5255 25.7813 23.556 25.1219 21.902 23.8741C20.2479 22.6265 19.0727 20.914 18.5035 18.9218L15.3932 8.0357C14.9514 6.48953 15.2535 4.86648 16.2218 3.58266C17.1902 2.29883 18.6678 1.5625 20.2759 1.5625H22.1285V3.90625H20.2759C19.41 3.90625 18.6143 4.30273 18.0929 4.99398C17.5715 5.68523 17.4088 6.55922 17.6467 7.3918L20.757 18.2779C21.625 21.3158 24.4378 23.4375 27.5973 23.4375C30.7567 23.4375 33.5695 21.3158 34.4375 18.278L37.5478 7.39187C37.7857 6.5593 37.6231 5.68531 37.1017 4.99406C36.5802 4.30273 35.7845 3.90625 34.9186 3.90625H33.0659V1.5625H33.066Z" fill="#F1F4F6"/>
<path d="M34.918 1.5625H33.0654V3.90625H34.918C35.7839 3.90625 36.5796 4.30273 37.101 4.99398C37.6224 5.68523 37.785 6.55922 37.5472 7.3918L34.4368 18.2779C33.5689 21.3158 30.7561 23.4375 27.5967 23.4375V25.7812C29.6686 25.7812 31.638 25.1218 33.292 23.8741C34.9461 22.6264 36.1212 20.9139 36.6904 18.9217L39.8007 8.03563C40.2425 6.48938 39.9405 4.86633 38.9722 3.5825C38.0038 2.29867 36.5261 1.5625 34.918 1.5625Z" fill="#DAEAEC"/>
<path d="M22.1279 5.46875C21.4807 5.46875 20.9561 4.94406 20.9561 4.29688V1.17188C20.9561 0.524687 21.4807 0 22.1279 0C22.7751 0 23.2998 0.524687 23.2998 1.17188V4.29688C23.2998 4.94406 22.7751 5.46875 22.1279 5.46875Z" fill="#5EA7B1"/>
<path d="M33.0654 5.46875C32.4182 5.46875 31.8936 4.94406 31.8936 4.29688V1.17188C31.8936 0.524687 32.4182 0 33.0654 0C33.7126 0 34.2373 0.524687 34.2373 1.17188V4.29688C34.2373 4.94406 33.7126 5.46875 33.0654 5.46875Z" fill="#79DAE8"/>
<path d="M5.85938 38.6719C8.44821 38.6719 10.5469 36.5732 10.5469 33.9844C10.5469 31.3955 8.44821 29.2969 5.85938 29.2969C3.27054 29.2969 1.17188 31.3955 1.17188 33.9844C1.17188 36.5732 3.27054 38.6719 5.85938 38.6719Z" fill="#5EA7B1"/>
<path d="M5.85938 39.8438C2.62852 39.8438 0 37.2152 0 33.9844C0 30.7535 2.62852 28.125 5.85938 28.125C9.09023 28.125 11.7188 30.7535 11.7188 33.9844C11.7188 37.2152 9.09023 39.8438 5.85938 39.8438ZM5.85938 30.4688C3.92086 30.4688 2.34375 32.0459 2.34375 33.9844C2.34375 35.9229 3.92086 37.5 5.85938 37.5C7.79789 37.5 9.375 35.9229 9.375 33.9844C9.375 32.0459 7.79789 30.4688 5.85938 30.4688Z" fill="#79DAE8"/>
<path d="M5.85938 35.1562C6.50658 35.1562 7.03125 34.6316 7.03125 33.9844C7.03125 33.3372 6.50658 32.8125 5.85938 32.8125C5.21217 32.8125 4.6875 33.3372 4.6875 33.9844C4.6875 34.6316 5.21217 35.1562 5.85938 35.1562Z" fill="#79DAE8"/>
</g>
<defs>
<clipPath id="clip0_52_4">
<rect width="40" height="40" fill="white"/>
</clipPath>
</defs>
</svg>
