<svg width="50" height="48" viewBox="0 0 50 48" fill="none" xmlns="http://www.w3.org/2000/svg">
<ellipse cx="25" cy="23.5583" rx="25" ry="23.5583" fill="#79DAE8"/>
<path fill-rule="evenodd" clip-rule="evenodd" d="M37.3949 22.3847C37.3949 25.4669 36.2699 28.3014 34.4022 30.567L40.3141 36.1379C40.6482 36.4522 40.8359 36.8793 40.8359 37.3228C40.8359 38.2423 40.0319 39 39.0561 39C38.5855 39 38.1328 38.8225 37.7987 38.5076L31.8868 32.9367C29.4832 34.6973 26.4753 35.7567 23.2037 35.7567C15.3827 35.7567 9 29.756 9 22.3847C9 15.0152 15.3827 9 23.2037 9C31.0262 9 37.3949 15.0152 37.3949 22.3847ZM12.5517 22.3847C12.5517 27.9476 17.3016 32.4123 23.2037 32.4123C29.1071 32.4123 33.8451 27.9476 33.8451 22.3847C33.8451 16.8229 29.1071 12.3469 23.2037 12.3469C17.3016 12.3469 12.5517 16.8229 12.5517 22.3847Z" fill="white"/>
</svg>
