<svg width="2709" height="622" viewBox="0 0 2709 622" fill="none" xmlns="http://www.w3.org/2000/svg">
<path d="M98.8796 416.143V67.5187H36.4349V9.35903H214.187C263.306 9.35903 301.081 11.9216 327.513 17.0468C354.165 22.172 379.936 33.7594 404.825 51.8089C429.715 69.8585 449.539 94.7045 464.296 126.347C479.274 157.766 486.763 193.643 486.763 233.976C486.763 279.88 479.605 319.767 465.288 353.638C450.971 387.508 432.138 412.8 408.79 429.513C385.662 446.225 358.019 457.924 325.861 464.609C293.923 471.071 253.174 474.302 203.615 474.302H36.4349V416.143H98.8796ZM168.263 416.143H204.606C245.134 416.143 277.183 413.58 300.751 408.455C324.539 403.33 344.583 394.639 360.883 382.383C377.182 369.904 390.398 351.186 400.53 326.229C410.662 301.272 415.728 271.857 415.728 237.987C415.728 197.654 407.358 163.449 390.618 135.372C374.099 107.295 352.843 89.0222 326.852 80.5545C301.081 71.864 261.324 67.5187 207.58 67.5187H168.263V416.143Z" fill="#5EA7B1"/>
<path d="M547.226 312.525C547.226 262.61 563.525 221.72 596.124 189.855C628.723 157.766 668.481 141.722 715.397 141.722C761.432 141.722 800.969 157.544 834.009 189.186C867.048 220.606 883.568 261.719 883.568 312.525C883.568 363.331 867.048 404.555 834.009 436.198C801.189 467.84 761.652 483.661 715.397 483.661C667.82 483.661 627.842 467.617 595.463 435.529C563.305 403.441 547.226 362.44 547.226 312.525ZM613.635 312.525C613.635 344.39 623.437 370.573 643.04 391.074C662.864 411.352 686.983 421.491 715.397 421.491C744.251 421.491 768.37 411.24 787.753 390.739C807.357 370.016 817.158 343.944 817.158 312.525C817.158 280.882 807.246 254.811 787.423 234.31C767.599 213.809 743.59 203.559 715.397 203.559C685.881 203.559 661.542 214.032 642.379 234.978C623.216 255.925 613.635 281.774 613.635 312.525Z" fill="#5EA7B1"/>
<path d="M1236.43 150.747V273.083H1180.26C1177.4 249.685 1167.93 231.747 1151.85 219.269C1135.99 206.79 1117.49 200.551 1096.34 200.551C1068.15 200.551 1045.24 210.69 1027.62 230.967C1010 251.023 1001.19 277.428 1001.19 310.185C1001.19 340.713 1009.56 367.676 1026.3 391.074C1043.04 414.248 1067.27 425.836 1098.99 425.836C1143.04 425.836 1174.98 404.667 1194.8 362.328L1246.67 387.063C1218.04 451.462 1167.93 483.661 1096.34 483.661C1045.68 483.661 1005.81 466.169 976.739 431.184C947.664 396.199 933.127 355.866 933.127 310.185C933.127 261.384 948.986 221.163 980.704 189.52C1012.42 157.655 1048.99 141.722 1090.4 141.722C1125.86 141.722 1155.81 152.307 1180.26 173.476V150.747H1236.43Z" fill="#5EA7B1"/>
<path d="M1282.68 207.236V150.747H1324.31V100.944L1387.09 42.7841V150.747H1446.23V207.236H1387.09V364.334C1387.09 389.514 1388.41 405.112 1391.05 411.129C1393.92 416.922 1400.86 419.819 1411.87 419.819C1423.54 419.819 1435 417.591 1446.23 413.134V470.96C1430.15 476.753 1414.07 479.65 1397.99 479.65C1378.83 479.65 1363.3 475.416 1351.41 466.949C1339.51 458.258 1332.02 447.451 1328.94 434.526C1325.86 421.602 1324.31 399.319 1324.31 367.676V207.236H1282.68Z" fill="#5EA7B1"/>
<path d="M1492.16 312.525C1492.16 262.61 1508.45 221.72 1541.05 189.855C1573.65 157.766 1613.41 141.722 1660.33 141.722C1706.36 141.722 1745.9 157.544 1778.94 189.186C1811.98 220.606 1828.5 261.719 1828.5 312.525C1828.5 363.331 1811.98 404.555 1778.94 436.198C1746.12 467.84 1706.58 483.661 1660.33 483.661C1612.75 483.661 1572.77 467.617 1540.39 435.529C1508.23 403.441 1492.16 362.44 1492.16 312.525ZM1558.56 312.525C1558.56 344.39 1568.37 370.573 1587.97 391.074C1607.79 411.352 1631.91 421.491 1660.33 421.491C1689.18 421.491 1713.3 411.24 1732.68 390.739C1752.29 370.016 1762.09 343.944 1762.09 312.525C1762.09 280.882 1752.18 254.811 1732.35 234.31C1712.53 213.809 1688.52 203.559 1660.33 203.559C1630.81 203.559 1606.47 214.032 1587.31 234.978C1568.15 255.925 1558.56 281.774 1558.56 312.525Z" fill="#5EA7B1"/>
<path d="M1933.56 417.814V207.236H1869.14V150.747H1983.78V223.614C1990.83 204.673 2000.63 188.963 2013.19 176.485C2025.74 164.006 2038.96 155.761 2052.84 151.75C2066.93 147.739 2086.1 145.733 2110.32 145.733H2126.84V209.91H2114.29C2082.35 209.91 2058.45 213.141 2042.59 219.603C2026.95 226.065 2015.28 237.875 2007.57 255.034C2000.08 271.969 1996.34 302.497 1996.34 346.618V417.814H2066.05V474.302H1869.14V417.814H1933.56Z" fill="#5EA7B1"/>
<path d="M2201.51 417.814V207.236H2154.93V151.081H2201.51V104.286C2201.51 64.8447 2209.77 37.6589 2226.29 22.7291C2242.81 7.57636 2262.31 0 2284.77 0C2333.23 0 2361.31 24.846 2369.02 74.538L2313.19 83.2285C2310.98 62.5049 2302.94 52.1432 2289.07 52.1432C2279.6 52.1432 2273.1 55.4857 2269.57 62.1707C2266.05 68.6329 2264.29 82.6714 2264.29 104.286V151.081H2319.13V207.236H2264.29V417.814H2325.08V474.302H2154.93V417.814H2201.51Z" fill="#5EA7B1"/>
<path d="M2497.88 468.62L2392.81 207.236H2339.62V150.747H2497.88V207.236H2459.55L2528.6 386.394L2596.34 207.236H2554.04V150.747H2709V207.236H2661.42L2503.16 619.367H2397.11V563.881H2459.55L2497.88 468.62Z" fill="#5EA7B1"/>
<path d="M62.4447 418.775V70.1516H0V11.9919H177.753C226.871 11.9919 264.646 14.5545 291.078 19.6797C317.73 24.8049 343.501 36.3922 368.39 54.4418C393.28 72.4913 413.104 97.3373 427.862 128.98C442.839 160.399 450.328 196.276 450.328 236.609C450.328 282.512 443.17 322.4 428.853 356.27C414.536 390.141 395.703 415.433 372.355 432.145C349.228 448.858 321.584 460.557 289.426 467.242C257.488 473.704 216.739 476.935 167.18 476.935H0V418.775H62.4447ZM131.828 418.775H168.171C208.7 418.775 240.748 416.213 264.316 411.088C288.104 405.962 308.148 397.272 324.448 385.016C340.747 372.537 353.963 353.819 364.095 328.862C374.227 303.904 379.293 274.49 379.293 240.62C379.293 200.287 370.923 166.082 354.183 138.005C337.664 109.927 316.408 91.6551 290.417 83.1874C264.646 74.4968 224.889 70.1516 171.145 70.1516H131.828V418.775Z" fill="#79DAE8"/>
<path d="M510.791 315.158C510.791 265.243 527.09 224.353 559.689 192.487C592.288 160.399 632.046 144.355 678.962 144.355C724.997 144.355 764.534 160.177 797.574 191.819C830.613 223.239 847.133 264.351 847.133 315.158C847.133 365.964 830.613 407.188 797.574 438.83C764.754 470.473 725.217 486.294 678.962 486.294C631.385 486.294 591.407 470.25 559.028 438.162C526.87 406.074 510.791 365.072 510.791 315.158ZM577.2 315.158C577.2 347.023 587.002 373.206 606.605 393.707C626.429 413.984 650.548 424.123 678.962 424.123C707.816 424.123 731.935 413.873 751.318 393.372C770.922 372.649 780.723 346.577 780.723 315.158C780.723 283.515 770.812 257.444 750.988 236.943C731.164 216.442 707.155 206.192 678.962 206.192C649.446 206.192 625.107 216.665 605.944 237.611C586.782 258.558 577.2 284.406 577.2 315.158Z" fill="#79DAE8"/>
<path d="M1199.99 153.38V275.716H1143.83C1140.96 252.318 1131.49 234.38 1115.41 221.902C1099.55 209.423 1081.05 203.183 1059.91 203.183C1031.71 203.183 1008.81 213.322 991.185 233.6C973.564 253.655 964.753 280.061 964.753 312.818C964.753 343.346 973.123 370.309 989.863 393.707C1006.6 416.881 1030.83 428.469 1062.55 428.469C1106.6 428.469 1138.54 407.299 1158.36 364.961L1210.24 389.696C1181.6 454.095 1131.49 486.294 1059.91 486.294C1009.25 486.294 969.379 468.802 940.304 433.817C911.229 398.832 896.692 358.499 896.692 312.818C896.692 264.017 912.551 223.796 944.269 192.153C975.987 160.288 1012.55 144.355 1053.96 144.355C1089.42 144.355 1119.38 154.94 1143.83 176.109V153.38H1199.99Z" fill="#79DAE8"/>
<path d="M1246.25 209.869V153.38H1287.88V103.577L1350.65 45.417V153.38H1409.8V209.869H1350.65V366.966C1350.65 392.147 1351.98 407.745 1354.62 413.762C1357.48 419.555 1364.42 422.452 1375.43 422.452C1387.11 422.452 1398.56 420.224 1409.8 415.767V473.593C1393.72 479.386 1377.64 482.283 1361.56 482.283C1342.39 482.283 1326.87 478.049 1314.97 469.582C1303.08 460.891 1295.59 450.084 1292.51 437.159C1289.42 424.235 1287.88 401.951 1287.88 370.309V209.869H1246.25Z" fill="#79DAE8"/>
<path d="M1455.72 315.158C1455.72 265.243 1472.02 224.353 1504.62 192.487C1537.22 160.399 1576.98 144.355 1623.89 144.355C1669.93 144.355 1709.46 160.177 1742.5 191.819C1775.54 223.239 1792.06 264.351 1792.06 315.158C1792.06 365.964 1775.54 407.188 1742.5 438.83C1709.68 470.473 1670.15 486.294 1623.89 486.294C1576.31 486.294 1536.34 470.25 1503.96 438.162C1471.8 406.074 1455.72 365.072 1455.72 315.158ZM1522.13 315.158C1522.13 347.023 1531.93 373.206 1551.53 393.707C1571.36 413.984 1595.48 424.123 1623.89 424.123C1652.75 424.123 1676.86 413.873 1696.25 393.372C1715.85 372.649 1725.65 346.577 1725.65 315.158C1725.65 283.515 1715.74 257.444 1695.92 236.943C1676.09 216.442 1652.09 206.192 1623.89 206.192C1594.38 206.192 1570.04 216.665 1550.87 237.611C1531.71 258.558 1522.13 284.406 1522.13 315.158Z" fill="#79DAE8"/>
<path d="M1897.13 420.447V209.869H1832.7V153.38H1947.35V226.247C1954.4 207.306 1964.2 191.596 1976.75 179.117C1989.31 166.639 2002.52 158.394 2016.4 154.383C2030.5 150.372 2049.66 148.366 2073.89 148.366H2090.41V212.543H2077.85C2045.92 212.543 2022.02 215.774 2006.16 222.236C1990.52 228.698 1978.85 240.508 1971.14 257.666C1963.65 274.602 1959.9 305.13 1959.9 349.251V420.447H2029.62V476.935H1832.7V420.447H1897.13Z" fill="#79DAE8"/>
<path d="M2165.08 420.447V209.869H2118.49V153.714H2165.08V106.919C2165.08 67.4776 2173.34 40.2918 2189.86 25.3619C2206.38 10.2092 2225.87 2.63287 2248.34 2.63287C2296.8 2.63287 2324.88 27.4789 2332.59 77.1708L2276.75 85.8614C2274.55 65.1378 2266.51 54.776 2252.63 54.776C2243.16 54.776 2236.66 58.1185 2233.14 64.8036C2229.62 71.2657 2227.85 85.3043 2227.85 106.919V153.714H2282.7V209.869H2227.85V420.447H2288.65V476.935H2118.49V420.447H2165.08Z" fill="#79DAE8"/>
<path d="M2461.44 471.253L2356.38 209.869H2303.18V153.38H2461.44V209.869H2423.12L2492.17 389.027L2559.9 209.869H2517.61V153.38H2672.57V209.869H2624.99L2466.73 622H2360.67V566.514H2423.12L2461.44 471.253Z" fill="#79DAE8"/>
</svg>
