<svg width="192" height="192" viewBox="0 0 192 192" fill="none" xmlns="http://www.w3.org/2000/svg">
<path d="M20.8101 124.966C53.1355 142.742 66.1275 171.691 81.7008 180.256C97.2795 188.822 134.917 197.851 174.319 126.192C213.722 54.5338 175.498 19.8191 158.362 10.4005C78.1381 -33.7169 -36.4379 93.4831 20.8101 124.966Z" fill="#E8F9FD"/>
<path d="M97.332 33.9902L33.332 72.0009L61.7107 105.046C70.9534 116.449 75.9987 130.678 75.9987 145.356V160.001H148.233L155.487 109.462C158.004 92.8276 151.119 76.1662 137.327 65.5262L97.332 34.6676V33.9902Z" fill="#F3F3F1"/>
<path d="M94.6641 160.001C94.6641 160.001 94.7867 138.193 95.2507 133.675C95.8267 128.081 98.6907 124.337 102.749 122.47C109.747 119.254 118.024 123.099 122.211 131.201C124.067 134.795 124.429 138.55 123.507 142.566C123.064 144.502 122.509 146.47 121.704 148.177C119.907 152.022 119.107 160.001 119.107 160.001H94.6641Z" fill="#79DAE8"/>
<path d="M59.9987 33.334L91.0387 64.374C93.588 66.9233 97.348 67.3873 100.729 66.15C103.487 65.142 106.671 65.0087 109.903 66.1073C113.935 67.4727 117.097 70.9287 118.185 75.046C120.543 83.9633 113.871 92.006 105.332 92.006C104.265 92.006 103.252 91.8993 102.292 91.6327C102.5 92.3793 102.612 93.158 102.649 93.9633C102.932 99.7767 99.364 105.441 93.8334 107.265C84.5747 110.315 75.9987 103.489 75.9987 94.6726C75.9987 93.2006 76.2387 91.782 76.676 90.4487C77.9027 86.7527 77.3747 82.71 74.6174 79.958L33.332 38.6673L59.9987 33.334Z" fill="#79DAE8"/>
<path d="M137.646 115.632C135.764 119.643 131.241 119.632 128.974 115.883C125.87 110.741 125.892 102.475 129.022 97.3598C131.252 93.7225 135.561 93.7652 137.63 97.5252C141.188 103.979 140.35 109.877 137.646 115.632Z" fill="#79DAE8"/>
<path d="M86.6654 144.693V160H75.9987V145.333C75.9987 130.666 70.932 116.426 61.7054 105.066L33.332 71.9996L71.5187 52.2129L42.612 66.8796L71.892 101.92C81.4387 114.026 86.6654 129.12 86.6654 144.693Z" fill="#D5DBE1"/>
<path d="M114.081 122.826C110.401 124.799 107.788 128.426 107.255 133.653C106.775 138.186 106.668 159.999 106.668 159.999H94.668C94.668 159.999 94.7746 138.186 95.2546 133.653C95.8413 128.106 98.7213 124.319 102.775 122.453C106.455 120.746 110.508 121.013 114.081 122.826Z" fill="#5EA7B1"/>
<path d="M98.2387 104.587C96.9587 105.813 95.4654 106.72 93.812 107.253C84.5854 110.293 75.9987 103.467 75.9987 94.6667C75.9987 93.1733 76.212 91.7867 76.692 90.4533C77.9187 86.7733 77.3854 82.72 74.612 79.9467L33.332 38.6667L46.6654 36L87.9454 77.28C90.7187 80.0533 91.252 84.1067 90.0254 87.7867C89.5454 89.12 89.332 90.5067 89.332 92C89.332 97.8133 93.0654 102.72 98.2387 104.587Z" fill="#5EA7B1"/>
<path d="M122.235 160.71L114.406 159.131L115.19 155.217C115.227 155.035 116.107 150.721 118.086 146.491C118.646 145.291 119.131 143.766 119.611 141.681C120.347 138.47 120.043 135.729 118.657 133.046C115.446 126.833 109.323 123.841 104.422 126.113C101.377 127.51 99.6326 130.198 99.2326 134.091C98.87 137.643 98.6993 151.137 98.6673 156.038L98.6406 160.038L90.6406 159.979L90.6673 155.974C90.6726 155.238 90.8006 137.921 91.2753 133.265C91.9633 126.55 95.446 121.43 101.078 118.833C109.947 114.769 120.555 119.281 125.766 129.366C128.006 133.702 128.555 138.449 127.409 143.462C126.801 146.123 126.139 148.155 125.329 149.883C123.771 153.211 123.035 156.763 123.03 156.795L122.235 160.71Z" fill="black"/>
<path d="M133.372 122.666C130.257 122.666 127.361 120.928 125.558 117.946C121.708 111.573 121.734 101.61 125.617 95.2689C127.425 92.3196 130.348 90.5223 133.51 90.6663C136.63 90.7356 139.484 92.5756 141.142 95.5889C144.897 102.41 144.94 109.52 141.27 117.328C139.782 120.496 136.993 122.485 133.809 122.656C133.665 122.666 133.516 122.666 133.372 122.666ZM133.324 98.6663C133.126 98.6663 132.769 98.9063 132.438 99.4449C130.102 103.264 130.086 109.973 132.406 113.813C132.79 114.453 133.132 114.714 133.393 114.666C133.51 114.661 133.782 114.458 134.033 113.93C136.636 108.384 136.668 104.053 134.134 99.4503C133.841 98.9169 133.51 98.6663 133.324 98.6663C133.329 98.6663 133.329 98.6663 133.324 98.6663Z" fill="black"/>
<path d="M80.0017 160.001H72.0017V145.35C72.0017 131.638 67.2443 118.22 58.6097 107.564L30.375 72.7476L36.5883 67.7129L64.8177 102.529C74.6097 114.604 80.0017 129.809 80.0017 145.35V160.001Z" fill="black"/>
<path d="M151.568 160.565L143.664 159.333L151.531 108.842C153.819 93.7651 147.44 78.3731 134.886 68.6877L94.3789 36.6504L99.3442 30.373L139.814 62.3784C154.63 73.8077 162.166 92.0904 159.446 110.053L151.568 160.565Z" fill="black"/>
<path d="M89.3265 112C85.6998 112 82.1852 110.885 79.1878 108.72C74.6918 105.467 72.0038 100.213 72.0038 94.6666C72.0038 92.7999 72.3025 90.9546 72.8892 89.1893C73.7158 86.6879 73.3105 84.2986 71.8012 82.7839L30.3398 41.3333L35.9985 35.6746L77.4492 77.1253C81.0865 80.7626 82.2438 86.3466 80.4732 91.7013C80.1585 92.6613 79.9985 93.6533 79.9985 94.6666C79.9985 97.6533 81.4438 100.48 83.8758 102.235C86.3825 104.048 89.4652 104.491 92.5852 103.461C96.3025 102.235 98.8572 98.3199 98.6598 94.1493C98.6332 93.5999 98.5585 93.1253 98.4412 92.6933C98.0572 91.3066 98.4518 89.8133 99.4705 88.7999C100.489 87.7866 101.988 87.3866 103.364 87.7759C103.919 87.9253 104.559 87.9999 105.337 87.9999C108.255 87.9999 110.953 86.6666 112.74 84.3466C114.553 81.9946 115.119 79.0506 114.324 76.0586C113.577 73.2319 111.337 70.8053 108.623 69.8879C106.425 69.1359 104.169 69.1466 102.105 69.8986C97.0438 71.7386 91.7265 70.7093 88.2118 67.1946L57.0118 35.9946L62.6705 30.3359L93.8705 61.5359C95.1825 62.8479 97.2358 63.1679 99.3585 62.3839C103.161 60.9973 107.252 60.9599 111.193 62.3093C116.457 64.0906 120.622 68.5759 122.062 74.0106C123.481 79.3759 122.399 84.9226 119.081 89.2266C116.031 93.1893 111.54 95.5946 106.617 95.9519C106.068 102.8 101.487 108.955 95.0918 111.061C93.1772 111.685 91.2358 112 89.3265 112Z" fill="black"/>
</svg>
